<svg width="153" height="155" viewBox="0 0 153 155" fill="none" xmlns="http://www.w3.org/2000/svg">
<line x1="44.4197" y1="113.561" x2="50.1138" y2="136.945" stroke="black" stroke-width="3" stroke-linecap="round"/>
<line x1="51.1865" y1="118.537" x2="42.4708" y2="132.863" stroke="black" stroke-width="3" stroke-linecap="round"/>
<line x1="39.3867" y1="120.199" x2="53.6813" y2="128.819" stroke="black" stroke-width="3" stroke-linecap="round"/>
<line x1="142.932" y1="135.342" x2="147.062" y2="152.302" stroke="black" stroke-width="2" stroke-linecap="round"/>
<line x1="147.864" y1="138.868" x2="141.518" y2="149.3" stroke="black" stroke-width="2" stroke-linecap="round"/>
<line x1="139.301" y1="140.197" x2="149.71" y2="146.474" stroke="black" stroke-width="2" stroke-linecap="round"/>
<rect x="21.4814" y="57.9261" width="98.6444" height="32.5897" transform="rotate(26.3394 21.4814 57.9261)" fill="#D9D9D9"/>
<path d="M89.6885 83.997L15.8443 47.4719C14.81 46.9604 13.5586 47.4277 13.1128 48.492L2.97885 72.6865C2.55691 73.6939 3.049 74.8655 4.04867 75.3053C60.3026 100.056 72.909 111.602 72.1345 114.293C86.0735 146.048 92.6761 150.104 94.2351 148.163C94.2594 135.098 87.2882 120.154 83.7995 114.315C109.868 147.026 116.401 146.649 116.409 142.372C112.691 134.899 102.452 120.571 97.7976 114.341C126.682 138.658 131.584 136.957 130.425 133.066L103.647 105.02C139.067 127.483 143.274 123.758 140.949 119.088L103.671 92.1885C116.496 95.7119 140.75 101.123 135.162 94.5802C129.575 88.0374 102.519 84.7985 89.6885 83.997Z" stroke="black" stroke-width="4"/>
<path d="M103.331 9.98917C102.929 10.6056 126.001 19.3687 128.173 20.5265C135.057 24.1951 144.002 25.9968 150.05 30.716" stroke="black" stroke-width="4" stroke-linecap="round"/>
<path d="M88.6452 36.1374C91.8998 38.6767 95.003 41.2279 99.3389 42.0785C105.718 43.33 110.955 46.9378 116.919 48.9153C122.381 50.7264 127.62 52.9754 133.06 54.8479C135.536 55.7003 137.405 56.4907 139.437 58.0761" stroke="black" stroke-width="4" stroke-linecap="round"/>
<path d="M127.772 22.5244C123.32 22.5244 117.263 32.0126 115.404 35.5244C112.824 40.3977 114.288 49.3368 121.272 49.3368" stroke="black" stroke-width="4" stroke-linecap="round"/>
<path d="M132.059 23.7825C137.04 28.2107 135.201 34.799 132.374 39.8865C129.98 44.1957 125.394 50.3068 120.06 50.3068" stroke="black" stroke-width="4" stroke-linecap="round"/>
<path d="M118.848 8.00696L97.9922 54.9335" stroke="black" stroke-width="4" stroke-linecap="round"/>
<path d="M93.9585 50.8801C96.267 50.8801 102.317 53.1614 103.299 55.126" stroke="black" stroke-width="4" stroke-linecap="round"/>
<path d="M103.299 55.9751C103.299 59.3895 99.9465 63.9511 97.5438 66.3538C96.4297 67.4679 87.8476 64.1336 87.165 62.7684" stroke="black" stroke-width="4" stroke-linecap="round"/>
<path d="M93.1092 50.8801C93.1092 55.1382 88.0142 58.5104 88.0142 62.7685" stroke="black" stroke-width="4" stroke-linecap="round"/>
<path d="M94.8076 54.2769C94.8076 56.3548 94.6146 58.3202 93.7697 60.221C93.4431 60.956 92.7455 62.3266 94.3359 61.8722C95.2609 61.6079 94.5124 60.1655 94.9963 59.5606C96.2221 58.0283 94.7771 55.9752 97.3551 55.9752C99.5128 55.9752 100.36 56.7102 99.9498 58.1453C99.1397 60.9805 96.4144 64.4669 93.5339 64.4669C88.0063 64.4669 88.4284 62.7894 90.5618 58.5227" stroke="black" stroke-width="4" stroke-linecap="round"/>
<path d="M96.5059 55.126H100.752" stroke="black" stroke-width="4" stroke-linecap="round"/>
<path d="M89.8145 65.6211C89.8145 66.2955 89.8771 70.4789 90.2736 69.9832C91.3083 68.6899 93.7417 67.8684 94.4062 66.5394" stroke="black" stroke-width="2" stroke-linecap="round"/>
<path d="M90.7329 68.3762C90.7329 65.9737 92.6387 62.9921 93.9471 61.0294" stroke="black" stroke-width="2" stroke-linecap="round"/>
<path d="M90.8716 68.3762L87.165 74.7194" stroke="black" stroke-width="2" stroke-linecap="round"/>
<path d="M98.655 57.6992C97.6095 57.6992 96.9682 58.081 96.2046 57.6992" stroke="black" stroke-width="4" stroke-linecap="round"/>
<path d="M115.139 40.6326C118.415 40.6326 121.035 42.5146 124.078 42.5146C125.568 42.5146 126.57 43.4556 128.312 43.4556C131.14 43.4556 129.727 41.9403 127.842 41.5213C125.609 41.0252 120.827 40.8551 119.112 39.4825C116.088 37.0637 116.315 34.9867 120.785 34.9867C124.078 34.9867 127.371 34.9867 130.665 34.9867C133.967 34.9867 126.175 33.1048 125.019 33.1048C122.219 33.1048 117.366 29.6353 122.667 29.3408C126.093 29.1505 129.585 29.3408 133.017 29.3408" stroke="black" stroke-width="4" stroke-linecap="round"/>
<path d="M94.7686 66.6599C95.3572 66.7335 95.7073 67.2989 96.366 67.2989" stroke="black" stroke-width="4" stroke-linecap="round"/>
<path fill-rule="evenodd" clip-rule="evenodd" d="M79.9821 89.6062C79.7499 88.5176 79.6246 87.4215 79.7033 87.1706C79.89 86.5756 80.5027 86.3101 80.9247 86.6412C81.1084 86.7853 81.382 87.5908 81.5328 88.4309L81.8068 89.9587L82.5142 89.7077L83.2216 89.4567L83.0825 88.1187C82.9159 86.5163 83.0261 85.8206 83.4977 85.4993C83.7381 85.3355 83.9948 85.3742 84.3106 85.6219C84.6657 85.9005 84.782 86.2961 84.8149 87.3376C84.875 89.2277 85.0188 89.4831 86.2233 89.8388C87.7726 90.2961 90.4456 92.4677 91.173 93.8598C92.361 96.1334 92.1644 96.7729 91.6873 97.843C90.6989 100.06 87.8847 100.673 84.852 99.3306C81.8919 98.021 79.5961 94.4754 80.233 92.1974C80.3271 91.8609 80.2142 90.695 79.9821 89.6062ZM72.7942 98.8429C72.5784 98.2201 72.4409 97.3794 72.4888 96.9746C72.595 96.0759 72.7424 95.8704 73.331 95.7992C74.0012 95.7184 74.1757 95.9471 74.2923 97.06C74.3501 97.6108 74.44 98.0949 74.4923 98.136C74.5445 98.1769 74.8432 98.0555 75.1559 97.8663C75.6932 97.5409 75.7182 97.4397 75.612 96.0294C75.4837 94.3262 75.6455 93.5786 76.1917 93.3507C76.8989 93.0557 77.3366 93.725 77.388 95.18C77.4564 97.1178 77.5286 97.2218 79.0509 97.5739C80.2145 97.8431 80.5251 98.0138 82.0487 99.2216C83.4119 100.302 83.8738 100.783 84.3819 101.652C85.0709 102.829 85.5526 104.891 85.3604 105.84C84.3789 110.685 76.9233 109.634 74.0554 104.245C73.6782 103.537 73.417 102.573 73.3269 101.558C73.2497 100.687 73.0099 99.4658 72.7942 98.8429ZM83.2618 105.889C83.8438 104.584 82.8779 102.352 81.1403 100.989C80.6199 100.581 80.154 100.304 80.1052 100.374C80.0562 100.444 80.0395 100.933 80.068 101.461C80.1386 102.764 79.6253 104.987 79.099 105.658C78.6745 106.199 78.6781 106.213 79.3349 106.575C80.8105 107.39 82.7433 107.052 83.2618 105.889ZM89.9037 96.9676C90.1106 96.1143 89.5185 94.7008 88.4782 93.5644C87.3405 92.3215 86.9912 92.2811 87.0153 93.3949C87.0369 94.3876 86.4712 96.2624 85.949 96.9279C85.5733 97.4067 85.583 97.4436 86.1634 97.7368C87.6643 98.4954 89.6316 98.0908 89.9037 96.9676Z" fill="black"/>
</svg>
